<svg width="160" height="40" viewBox="0 0 160 40" fill="none" xmlns="http://www.w3.org/2000/svg"><path d="M0 38.965h8.275l16.009-24.251h-8.167L0 38.964Zm1.298-16.186c2.272-5.122 4.327-7.466 7.896-8.065H2.758l-1.46 8.065Zm15.793 16.186h6.436l1.46-8.011c-2.271 5.122-4.273 7.411-7.896 8.01ZM48.915 40a75.503 75.503 0 0 1 10.546-1.417c-1.081-.054-2.055-.545-2.704-1.362-.54-.654-.811-1.526-.811-2.398V13.788L45.29 15.095c2.164.273 3.624 2.18 3.624 4.306V40Zm-9.41-.327c2.054 0 4.001-.545 5.678-1.526-.65.218-1.244.382-2.001.382-2.596 0-4.219-1.853-4.219-4.96V13.842l-10.6 1.308c2.109.272 3.57 2.18 3.57 4.305v12.97c0 6.54 5.245 7.248 7.571 7.248ZM67.886 7.03c1.893 0 3.462-1.58 3.462-3.542C71.348 1.58 69.779 0 67.886 0c-1.947 0-3.515 1.58-3.515 3.488 0 1.962 1.568 3.542 3.515 3.542Zm-6.652 31.935h12.44c-1.137-.327-2.65-1.09-2.65-3.924V13.897l-10.602 1.362c2.11.218 3.57 2.125 3.57 4.305v15.204c0 3.052-1.568 3.87-2.758 4.197Zm30.421.435 3.353-7.52-5.462-12.207c-.487-1.035-.65-1.744-.65-2.343 0-1.853 1.57-2.344 2.705-2.616H77.377c.973.436 2.758 1.308 4.272 4.36L91.655 39.4Zm9.032-20c1.785-3.324 3.786-4.25 5.138-4.686h-7.842c1.19.272 2.921.872 2.921 3.106 0 .545-.109 1.036-.217 1.58Zm22.931 5.287h6.652c-.108-5.831-4.164-10.028-10.168-10.736 2.434 1.308 3.516 4.905 3.516 8.501v2.235Zm-5.246 14.986c4.056 0 7.247-1.144 9.789-3.27-2.109 1.09-4.381 1.744-6.707 1.744-6.273 0-9.518-4.632-9.518-12.207 0-4.85 1.352-10.627 4.056-11.935-7.031.981-11.52 5.995-11.52 12.97 0 7.793 5.571 12.698 13.9 12.698Zm16.173-.708h12.439c-1.135-.327-2.65-1.036-2.65-3.924V13.897l-10.654 1.362c2.163.272 3.623 2.125 3.623 4.305v15.204c0 3.052-1.568 3.87-2.758 4.197Zm25.404-24.321c-2.967 1.754-2.754 5.356-4.832 6.982-1.565 1.223-3.772.604-5.048.077 0 0-.865 1.1-1.485 2.567-.208.492-1.12-.05-.96-.467 2.028-5.273 8.928-7.904 8.928-7.904s-4.868-.208-8.122 4.076c-.087-.978-.232-3.626 2.288-5.25 3.416-2.202 9.923-.49 9.231-.08Z" fill="#435C12"/></svg>