<svg viewBox="0 0 568 192" fill="none" xmlns="http://www.w3.org/2000/svg"><path d="M0 137.28h29.376l56.832-85.44H57.216L0 137.28Zm4.608-57.024c8.064-18.048 15.36-26.304 28.032-28.416H9.792L4.608 80.256Zm56.064 57.024H83.52l5.184-28.224c-8.064 18.048-15.168 26.112-28.032 28.224Zm112.976 3.648c12.288-2.496 24.767-4.224 37.44-4.992-3.841-.192-7.296-1.92-9.6-4.8-1.92-2.304-2.88-5.376-2.88-8.448V48.576l-37.824 4.608c7.68.96 12.864 7.68 12.864 15.168v72.576Zm-33.408-1.152c7.296 0 14.208-1.92 20.16-5.376-2.304.768-4.416 1.344-7.104 1.344-9.217 0-14.976-6.528-14.976-17.472V48.768l-37.632 4.608c7.487.96 12.671 7.68 12.671 15.168v45.696c0 23.04 18.625 25.536 26.881 25.536ZM240.996 24.768c6.72 0 12.288-5.568 12.288-12.48 0-6.72-5.568-12.288-12.288-12.288-6.912 0-12.48 5.568-12.48 12.288 0 6.912 5.568 12.48 12.48 12.48ZM217.38 137.28h44.16c-4.032-1.152-9.408-3.84-9.408-13.824V48.96l-37.632 4.8c7.488.768 12.672 7.488 12.672 15.168v53.568c0 10.752-5.568 13.632-9.792 14.784Zm107.995 1.536 11.905-26.496-19.393-43.008c-1.728-3.648-2.304-6.144-2.304-8.256 0-6.528 5.568-8.256 9.601-9.216h-50.496c3.455 1.536 9.791 4.608 15.167 15.36l35.52 71.616Zm32.064-70.464c6.336-11.712 13.441-14.976 18.241-16.512h-27.841c4.224.96 10.368 3.072 10.368 10.944 0 1.92-.384 3.648-.768 5.568Zm81.404 18.624h23.616c-.384-20.544-14.784-35.328-36.096-37.824 8.64 4.608 12.48 17.28 12.48 29.952v7.872Zm-18.624 52.8c14.4 0 25.728-4.032 34.752-11.52-7.488 3.84-15.552 6.144-23.808 6.144-22.272 0-33.792-16.32-33.792-43.008 0-17.088 4.8-37.44 14.4-42.048-24.96 3.456-40.896 21.12-40.896 45.696 0 27.456 19.776 44.736 49.344 44.736Zm57.415-2.496h44.16c-4.031-1.152-9.407-3.648-9.407-13.824V48.96l-37.825 4.8c7.68.96 12.864 7.488 12.864 15.168v53.568c0 10.752-5.568 13.632-9.792 14.784Zm90.184-85.686c-10.53 6.18-9.776 18.872-17.154 24.599-5.553 4.31-13.388 2.127-17.919.273 0 0-3.07 3.875-5.272 9.041-.738 1.733-3.975-.176-3.406-1.644 7.199-18.578 31.693-27.847 31.693-27.847s-17.283-.732-28.834 14.36c-.309-3.447-.822-12.774 8.123-18.494 12.126-7.762 35.228-1.728 32.769-.288Zm-444.992 139.83c-2.026 0-3.573-.619-4.64-1.856-1.066-1.259-1.674-2.987-1.824-5.184l2.144-.64c.192 1.835.598 3.243 1.216 4.224.64.981 1.686 1.472 3.136 1.472 2.432 0 3.648-1.248 3.648-3.744 0-1.067-.256-2.005-.768-2.816-.49-.811-1.29-1.739-2.4-2.784l-4.576-4.384c-.832-.768-1.44-1.568-1.824-2.4-.362-.853-.544-1.792-.544-2.816 0-1.771.523-3.136 1.568-4.096 1.067-.981 2.496-1.472 4.288-1.472 1.92 0 3.392.512 4.416 1.536 1.024 1.024 1.622 2.699 1.792 5.024l-2.08.544c-.128-1.749-.501-3.051-1.12-3.904-.597-.853-1.6-1.28-3.008-1.28-1.109 0-1.994.288-2.656.864-.661.576-.992 1.429-.992 2.56 0 .725.139 1.376.416 1.952.278.576.747 1.184 1.408 1.824l4.576 4.32c1.174 1.109 2.091 2.251 2.752 3.424a7.212 7.212 0 0 1 1.024 3.744c0 1.877-.544 3.328-1.632 4.352-1.088 1.024-2.528 1.536-4.32 1.536Zm21.631 0c-2.432 0-4.139-.715-5.12-2.144-.96-1.429-1.44-3.413-1.44-5.952v-10.304c0-2.603.48-4.597 1.44-5.984.981-1.408 2.688-2.112 5.12-2.112 2.219 0 3.797.629 4.736 1.888.939 1.259 1.408 3.083 1.408 5.472v1.568h-2.304v-1.504c0-1.237-.096-2.24-.288-3.008-.192-.789-.565-1.397-1.12-1.824-.555-.427-1.355-.64-2.4-.64-1.131 0-1.995.235-2.592.704s-1.003 1.12-1.216 1.952c-.213.811-.32 1.856-.32 3.136v11.04c0 2.005.299 3.467.896 4.384.619.917 1.696 1.376 3.232 1.376 1.515 0 2.528-.459 3.04-1.376.512-.939.768-2.357.768-4.256v-1.696h2.304v1.536c0 2.475-.459 4.384-1.376 5.728-.917 1.344-2.507 2.016-4.768 2.016Zm16.321-26.24h2.464v11.488h8.16v-11.488h2.432v25.92h-2.432v-12.608h-8.16v12.608h-2.464v-25.92Zm30.138 26.24c-2.432 0-4.16-.693-5.184-2.08-1.002-1.387-1.504-3.349-1.504-5.888v-10.752c0-2.517.512-4.437 1.536-5.76 1.024-1.344 2.742-2.016 5.152-2.016 2.368 0 4.064.672 5.088 2.016 1.024 1.344 1.536 3.264 1.536 5.76v10.784c0 2.539-.501 4.501-1.504 5.888-1.002 1.365-2.709 2.048-5.12 2.048Zm0-1.952c1.579 0 2.667-.459 3.264-1.376.598-.939.896-2.304.896-4.096v-11.744c0-1.792-.298-3.136-.896-4.032-.576-.896-1.664-1.344-3.264-1.344-1.621 0-2.73.448-3.328 1.344-.597.875-.896 2.219-.896 4.032V184c0 1.813.299 3.179.896 4.096.598.917 1.707 1.376 3.328 1.376Zm23.213 1.952c-2.432 0-4.16-.693-5.184-2.08-1.003-1.387-1.504-3.349-1.504-5.888v-10.752c0-2.517.512-4.437 1.536-5.76 1.024-1.344 2.741-2.016 5.152-2.016 2.368 0 4.064.672 5.088 2.016 1.024 1.344 1.536 3.264 1.536 5.76v10.784c0 2.539-.502 4.501-1.504 5.888-1.003 1.365-2.71 2.048-5.12 2.048Zm0-1.952c1.578 0 2.666-.459 3.264-1.376.597-.939.896-2.304.896-4.096v-11.744c0-1.792-.299-3.136-.896-4.032-.576-.896-1.664-1.344-3.264-1.344-1.622 0-2.731.448-3.328 1.344-.598.875-.896 2.219-.896 4.032V184c0 1.813.298 3.179.896 4.096.597.917 1.706 1.376 3.328 1.376Zm17.068-24.288h1.76l8.256 20.128v-20.128h2.112v25.92h-1.728l-8.288-20.352v20.352h-2.112v-25.92Zm22.993 0h2.464v11.488h8.16v-11.488h2.432v25.92h-2.432v-12.608h-8.16v12.608h-2.464v-25.92Zm23.963 0h9.376v1.888h-6.912v9.728h5.632v1.792h-5.632v10.688h6.976v1.824h-9.44v-25.92Zm19.246 0h2.432v25.92h-2.432v-25.92Zm13.43 0h5.632c2.56 0 4.373.661 5.44 1.984 1.066 1.301 1.6 3.179 1.6 5.632v10.304c0 2.581-.523 4.565-1.568 5.952-1.024 1.365-2.774 2.048-5.248 2.048h-5.856v-25.92Zm5.696 24.096c1.301 0 2.272-.267 2.912-.8.661-.555 1.088-1.28 1.28-2.176.192-.917.288-2.112.288-3.584v-9.664c0-1.408-.118-2.528-.352-3.36-.235-.853-.683-1.504-1.344-1.952-.662-.448-1.622-.672-2.88-.672h-3.168v22.208h3.264Zm22.895 2.144c-2.027 0-3.573-.619-4.64-1.856-1.067-1.259-1.675-2.987-1.824-5.184l2.144-.64c.192 1.835.597 3.243 1.216 4.224.64.981 1.685 1.472 3.136 1.472 2.432 0 3.648-1.248 3.648-3.744 0-1.067-.256-2.005-.768-2.816-.491-.811-1.291-1.739-2.4-2.784l-4.576-4.384c-.832-.768-1.44-1.568-1.824-2.4-.363-.853-.544-1.792-.544-2.816 0-1.771.523-3.136 1.568-4.096 1.067-.981 2.496-1.472 4.288-1.472 1.92 0 3.392.512 4.416 1.536 1.024 1.024 1.621 2.699 1.792 5.024l-2.08.544c-.128-1.749-.501-3.051-1.12-3.904-.597-.853-1.6-1.28-3.008-1.28-1.109 0-1.995.288-2.656.864-.661.576-.992 1.429-.992 2.56 0 .725.139 1.376.416 1.952.277.576.747 1.184 1.408 1.824l4.576 4.32c1.173 1.109 2.091 2.251 2.752 3.424a7.212 7.212 0 0 1 1.024 3.744c0 1.877-.544 3.328-1.632 4.352-1.088 1.024-2.528 1.536-4.32 1.536Zm21.119 0c-2.027 0-3.574-.619-4.64-1.856-1.067-1.259-1.675-2.987-1.824-5.184l2.144-.64c.192 1.835.597 3.243 1.216 4.224.64.981 1.685 1.472 3.136 1.472 2.432 0 3.648-1.248 3.648-3.744 0-1.067-.256-2.005-.768-2.816-.491-.811-1.291-1.739-2.4-2.784l-4.576-4.384c-.832-.768-1.44-1.568-1.824-2.4-.363-.853-.544-1.792-.544-2.816 0-1.771.522-3.136 1.568-4.096 1.066-.981 2.496-1.472 4.288-1.472 1.92 0 3.392.512 4.416 1.536 1.024 1.024 1.621 2.699 1.792 5.024l-2.08.544c-.128-1.749-.502-3.051-1.12-3.904-.598-.853-1.6-1.28-3.008-1.28-1.11 0-1.995.288-2.656.864-.662.576-.992 1.429-.992 2.56 0 .725.138 1.376.416 1.952.277.576.746 1.184 1.408 1.824l4.576 4.32c1.173 1.109 2.09 2.251 2.752 3.424a7.221 7.221 0 0 1 1.024 3.744c0 1.877-.544 3.328-1.632 4.352-1.088 1.024-2.528 1.536-4.32 1.536Zm19.678-26.24h2.56l5.504 25.92h-2.399l-1.28-6.944h-6.176l-1.313 6.944h-2.367l5.471-25.92Zm4.064 17.216-2.751-13.984-2.753 13.984h5.504Zm13.523-17.216h2.432v24.096h7.36v1.824h-9.792v-25.92Zm24.637 26.24c-2.432 0-4.16-.693-5.184-2.08-1.002-1.387-1.504-3.349-1.504-5.888v-10.752c0-2.517.512-4.437 1.536-5.76 1.024-1.344 2.742-2.016 5.152-2.016 2.368 0 4.064.672 5.088 2.016 1.024 1.344 1.536 3.264 1.536 5.76v10.784c0 2.539-.501 4.501-1.504 5.888-1.002 1.365-2.709 2.048-5.12 2.048Zm0-1.952c1.579 0 2.667-.459 3.264-1.376.598-.939.896-2.304.896-4.096v-11.744c0-1.792-.298-3.136-.896-4.032-.576-.896-1.664-1.344-3.264-1.344-1.621 0-2.73.448-3.328 1.344-.597.875-.896 2.219-.896 4.032V184c0 1.813.299 3.179.896 4.096.598.917 1.707 1.376 3.328 1.376Zm17.069-24.288h1.76l8.256 20.128v-20.128h2.112v25.92h-1.728l-8.288-20.352v20.352h-2.112v-25.92Z" fill="#663600"/></svg>