<svg width="160" height="40" viewBox="0 0 160 40" fill="none" xmlns="http://www.w3.org/2000/svg">
<path d="M0 38.9646H8.27493L24.2839 14.7139H16.1172L0 38.9646ZM1.29803 22.7793C3.56958 17.6567 5.62479 15.3134 9.19437 14.7139H2.75831L1.29803 22.7793ZM17.0907 38.9646H23.5268L24.987 30.9537C22.7155 36.0763 20.7144 38.3651 17.0907 38.9646Z" fill="#435C12"/>
<path d="M48.9148 40C52.3762 39.2915 55.8917 38.8011 59.4613 38.5831C58.3796 38.5286 57.4061 38.0382 56.757 37.2207C56.2162 36.5668 55.9458 35.6948 55.9458 34.8229V13.7875L45.2911 15.0954C47.4545 15.3678 48.9148 17.2752 48.9148 19.4005V40ZM39.5041 39.673C41.5593 39.673 43.5063 39.1281 45.183 38.1471C44.5339 38.3651 43.939 38.5286 43.1818 38.5286C40.5858 38.5286 38.9632 36.6757 38.9632 33.5695V13.842L28.3627 15.1499C30.472 15.4223 31.9323 17.3297 31.9323 19.455V32.4251C31.9323 38.9646 37.1785 39.673 39.5041 39.673Z" fill="#435C12"/>
<path d="M67.8862 7.02997C69.7792 7.02997 71.3476 5.44959 71.3476 3.48774C71.3476 1.58038 69.7792 0 67.8862 0C65.9392 0 64.3707 1.58038 64.3707 3.48774C64.3707 5.44959 65.9392 7.02997 67.8862 7.02997ZM61.2338 38.9646H73.6732C72.5375 38.6376 71.0231 37.8747 71.0231 35.0409V13.8965L60.4225 15.2589C62.5318 15.4768 63.9921 17.3842 63.9921 19.564V34.7684C63.9921 37.8202 62.4237 38.6376 61.2338 38.9646Z" fill="#435C12"/>
<path d="M91.6551 39.4005L95.0083 31.8801L89.5458 19.673C89.059 18.6376 88.8968 17.9292 88.8968 17.3297C88.8968 15.4768 90.4652 14.9864 91.601 14.7139H77.3768C78.3503 15.1499 80.1351 16.0218 81.6494 19.0736L91.6551 39.4005ZM100.687 19.4005C102.472 16.0763 104.473 15.1499 105.825 14.7139H97.983C99.1728 14.9864 100.904 15.5858 100.904 17.8202C100.904 18.3651 100.795 18.8556 100.687 19.4005Z" fill="#435C12"/>
<path d="M123.618 24.6866H130.27C130.162 18.8556 126.106 14.6594 120.102 13.951C122.536 15.2589 123.618 18.8556 123.618 22.4523V24.6866ZM118.372 39.673C122.428 39.673 125.619 38.5286 128.161 36.4033C126.052 37.4932 123.78 38.1471 121.454 38.1471C115.181 38.1471 111.936 33.515 111.936 25.9401C111.936 21.0899 113.288 15.3134 115.992 14.0054C108.961 14.9864 104.472 20 104.472 26.9755C104.472 34.7684 110.043 39.673 118.372 39.673Z" fill="#435C12"/>
<path d="M134.545 38.9646H146.984C145.849 38.6376 144.334 37.9292 144.334 35.0409V13.8965L133.68 15.2589C135.843 15.5313 137.303 17.3842 137.303 19.564V34.7684C137.303 37.8202 135.735 38.6376 134.545 38.9646Z" fill="#435C12"/>
<path d="M159.949 14.6442C156.982 16.3981 157.195 20.0004 155.117 21.6259C153.552 22.8494 151.345 22.2298 150.069 21.7035C150.069 21.7035 149.204 22.8034 148.584 24.2697C148.376 24.7617 147.464 24.2197 147.624 23.8032C149.652 18.53 156.552 15.8992 156.552 15.8992C156.552 15.8992 151.684 15.6913 148.43 19.975C148.343 18.9966 148.198 16.3493 150.718 14.7259C154.134 12.5226 160.641 14.2353 159.949 14.6442Z" fill="#435C12"/>
</svg>
