<svg width="24" height="24" viewBox="0 0 24 24" fill="none" xmlns="http://www.w3.org/2000/svg"><path fill-rule="evenodd" clip-rule="evenodd" d="M18.81 13.591c-.147-.146-.419-.299-.821-.432-.39-.13-.84-.222-1.28-.284a12.7 12.7 0 0 0-.83-.09c.018.247.046.533.089.832.063.439.154.888.284 1.279.133.402.286.674.432.822a1.504 1.504 0 0 0 2.127-2.127Zm-2.658 2.656-.402.402v-.003l.402-.4Zm1.594 1.41a3.004 3.004 0 0 1-1.996-.76v3.353a1.5 1.5 0 0 1-1.5 1.5h-3a1.5 1.5 0 0 1-1.5-1.5h-6a1.5 1.5 0 0 1-1.5-1.5V5.25a1.5 1.5 0 0 1 1.5-1.5h6a1.5 1.5 0 0 1 1.5-1.5h3a1.5 1.5 0 0 1 1.5 1.5v3.352a3.004 3.004 0 0 1 4.12 4.369l-.002.002a2.913 2.913 0 0 1-.757.527c.276.138.538.31.757.527l.002.002a3.004 3.004 0 0 1-2.124 5.128ZM15.75 7.351v.003l.402.4-.402-.403Zm-1.5 3.899v-7.5h-3v7.5h3Zm-3 1.5h3v7.5h-3v-7.5Zm-1.5-1.5v-6h-6v6h6Zm-6 1.5h6v6h-6v-6Zm12.502-3.646c.133-.402.286-.674.432-.822a1.504 1.504 0 0 1 2.127 2.127c-.148.146-.42.299-.822.432-.39.13-.84.222-1.28.284a12.7 12.7 0 0 1-.83.09c.018-.247.046-.533.089-.832.063-.439.154-.888.284-1.279Z" fill="#162900"/></svg>